<?xml version="1.0" encoding="UTF-8" standalone="no"?>
<!-- Created with Inkscape (http://www.inkscape.org/) -->

<svg
   width="221.2272mm"
   height="194.86749mm"
   viewBox="0 0 221.22721 194.8675"
   version="1.1"
   id="svg1"
   inkscape:version="1.3.2 (091e20e, 2023-11-25, custom)"
   sodipodi:docname="Segnale stradale italiano 2025 - figura II 13 + pannello giallo verde.svg"
   xmlns:inkscape="http://www.inkscape.org/namespaces/inkscape"
   xmlns:sodipodi="http://sodipodi.sourceforge.net/DTD/sodipodi-0.dtd"
   xmlns="http://www.w3.org/2000/svg"
   xmlns:svg="http://www.w3.org/2000/svg">
  <sodipodi:namedview
     id="namedview1"
     pagecolor="#ffffff"
     bordercolor="#000000"
     borderopacity="0.25"
     inkscape:showpageshadow="2"
     inkscape:pageopacity="0.0"
     inkscape:pagecheckerboard="0"
     inkscape:deskcolor="#d1d1d1"
     inkscape:document-units="mm"
     inkscape:zoom="0.73049944"
     inkscape:cx="451.74573"
     inkscape:cy="350.44517"
     inkscape:window-width="1920"
     inkscape:window-height="991"
     inkscape:window-x="-9"
     inkscape:window-y="-9"
     inkscape:window-maximized="1"
     inkscape:current-layer="layer1" />
  <defs
     id="defs1" />
  <g
     inkscape:label="Livello 1"
     inkscape:groupmode="layer"
     id="layer1"
     transform="translate(14.96669,-46.36736)">
    <g
       id="g26"
       transform="translate(106.40271,-352.3554)">
      <path
         id="rect14439-6-7-2-2-0-2-1"
         style="fill:#000000;fill-rule:evenodd;stroke-width:1.89776;stroke-linecap:round;stroke-linejoin:round;paint-order:markers fill stroke"
         d="m -11.0901,398.72276 c -0.088,0 -0.1767,0.016 -0.2651,0.02 -0.1876,0.01 -0.374,0.024 -0.5607,0.042 -0.2732,0.026 -0.546,0.052 -0.8185,0.097 -0.013,0 -0.026,0 -0.039,0.01 -0.3638,0.061 -0.7263,0.1412 -1.0868,0.2367 -0.021,0.01 -0.042,0.01 -0.063,0.016 -0.3391,0.092 -0.676,0.2004 -1.0102,0.323 -0.043,0.016 -0.086,0.03 -0.1287,0.047 -0.3137,0.1191 -0.6242,0.2536 -0.9317,0.4005 -0.054,0.026 -0.1074,0.051 -0.1608,0.077 -0.2353,0.1166 -0.4694,0.2388 -0.7002,0.3721 -0.069,0.04 -0.1343,0.083 -0.202,0.1235 -0.036,0.022 -0.071,0.044 -0.107,0.066 -2.0293,1.2515 -3.5686,3.0003 -4.5465,4.9976 l -97.9537,169.66 c -0.7379,1.2451 -1.2678,2.6279 -1.5234,4.1108 -0.029,0.1688 -0.054,0.3389 -0.076,0.5101 -0.01,0.039 -0.01,0.077 -0.015,0.1157 -0.042,0.3503 -0.069,0.7051 -0.081,1.064 0,0.052 0,0.104 0,0.1561 0,0.084 -0.01,0.1665 -0.01,0.2506 0,0.2693 0.012,0.5357 0.029,0.8005 0,0.031 0,0.063 0.01,0.094 0.1135,1.576 0.5334,3.0611 1.1865,4.4116 0.01,0.013 0.012,0.025 0.018,0.038 1.9215,3.939 5.8934,6.6762 10.5513,6.8177 0.048,0 0.096,0 0.1447,0 0.078,0 0.1555,0.01 0.2341,0.01 H 87.6846 c 0.079,0 0.1559,0 0.2341,-0.01 0.048,0 0.097,0 0.1452,0 4.6594,-0.1416 8.6326,-2.8807 10.5533,-6.8218 0,-0.01 0.01,-0.019 0.014,-0.029 0.6544,-1.3517 1.0749,-2.8384 1.1886,-4.4162 0,-0.031 0,-0.063 0.01,-0.094 0.017,-0.2648 0.028,-0.5312 0.028,-0.8005 0,-0.082 -0.01,-0.1624 -0.01,-0.2439 -0.001,-0.055 0,-0.1108 0,-0.1664 -0.012,-0.3576 -0.038,-0.7109 -0.08,-1.0599 0,-0.04 -0.01,-0.08 -0.015,-0.1193 -0.022,-0.1694 -0.047,-0.3378 -0.076,-0.5049 -1e-4,-7e-4 -4e-4,0 -5e-4,0 -2e-4,-8e-4 -4e-4,0 -5e-4,0 -0.257,-1.489 -0.7907,-2.8768 -1.5338,-4.1258 L 0.1935,405.54536 c -0.9778,-1.9921 -2.5142,-3.7366 -4.5388,-4.9858 -0.037,-0.023 -0.075,-0.046 -0.1121,-0.069 -0.067,-0.04 -0.1317,-0.082 -0.1995,-0.1214 -0.2273,-0.1313 -0.4576,-0.2513 -0.6893,-0.3664 -0.061,-0.03 -0.1225,-0.059 -0.184,-0.088 -0.3008,-0.1432 -0.6044,-0.275 -0.9111,-0.3917 -0.05,-0.019 -0.1002,-0.036 -0.1503,-0.054 -0.3267,-0.1194 -0.6557,-0.2257 -0.9871,-0.3157 -0.03,-0.01 -0.061,-0.015 -0.091,-0.023 -0.3516,-0.093 -0.7051,-0.17 -1.0599,-0.23 -0.021,0 -0.042,-0.01 -0.062,-0.01 -0.2633,-0.043 -0.5271,-0.068 -0.7911,-0.094 -0.1944,-0.019 -0.3886,-0.035 -0.584,-0.044 -0.1926,-0.01 -0.3844,-0.012 -0.5767,-0.012 -0.1135,-1e-4 -0.2263,-0.01 -0.34,-0.01 z"
         sodipodi:nodetypes="sssscscsssssscccsscsssscscssssscscscsssscsscccsssssssssssssss" />
      <path
         id="rect14439-7-2-2-2-0"
         style="fill:#ffffff;fill-rule:evenodd;stroke-width:1.87477;stroke-linecap:round;stroke-linejoin:round;paint-order:markers fill stroke"
         d="m -11.0826,398.99126 c -0.084,0 -0.1674,0.015 -0.2512,0.019 -0.1897,0.01 -0.3781,0.024 -0.5668,0.043 -0.1943,0.019 -0.388,0.04 -0.5819,0.069 -0.1867,0.027 -0.3716,0.061 -0.5566,0.098 -0.2457,0.048 -0.4913,0.096 -0.7353,0.1602 -0.03,0.01 -0.06,0.015 -0.09,0.023 -0.3246,0.088 -0.6469,0.192 -0.9669,0.309 -0.048,0.017 -0.096,0.034 -0.1431,0.052 -0.3038,0.1155 -0.6045,0.2459 -0.9023,0.3881 -0.054,0.026 -0.108,0.051 -0.1618,0.078 -0.2297,0.1139 -0.4583,0.2327 -0.6836,0.3628 -0.067,0.039 -0.1306,0.081 -0.1964,0.1204 -0.036,0.022 -0.072,0.044 -0.1085,0.066 -1.9833,1.2237 -3.4879,2.9328 -4.4442,4.885 l -97.9697,169.6878 c -0.3276,0.5537 -0.6118,1.1343 -0.8475,1.7415 -0.015,0.039 -0.028,0.079 -0.043,0.1184 -0.3222,0.8566 -0.5579,1.7559 -0.676,2.6949 0,0.023 -0.01,0.046 -0.01,0.07 -0.041,0.3412 -0.067,0.6869 -0.079,1.0366 0,0.056 0,0.1109 0,0.1664 0,0.08 -0.01,0.1583 -0.01,0.2382 0,0.2629 0.011,0.5228 0.028,0.7814 0,0.031 0,0.062 0.01,0.093 0.081,1.1228 0.3249,2.1965 0.6935,3.2101 0.016,0.043 0.031,0.087 0.048,0.1297 0.1251,0.3319 0.2645,0.6557 0.4176,0.9726 0.01,0.014 0.014,0.029 0.021,0.043 1.8798,3.8515 5.764,6.528 10.3187,6.6673 0.048,0 0.096,0 0.1447,0 0.076,0 0.1518,0.01 0.2284,0.01 H 87.684 c 0.077,0 0.1522,0 0.2284,-0.01 0.048,-10e-4 0.096,0 0.1437,0 4.5552,-0.1389 8.4398,-2.8155 10.3198,-6.6673 0.01,-0.014 0.014,-0.029 0.021,-0.043 0.1526,-0.3158 0.2912,-0.6387 0.416,-0.9695 0.018,-0.046 0.034,-0.092 0.051,-0.1385 0.3668,-1.0103 0.6103,-2.08 0.6914,-3.1987 0,-0.034 0.01,-0.068 0.01,-0.1013 0.016,-0.2577 0.028,-0.5168 0.028,-0.7788 0,-0.08 0,-0.1587 -0.01,-0.2382 -10e-4,-0.055 0,-0.1105 0,-0.1659 -0.012,-0.3497 -0.038,-0.6953 -0.079,-1.0366 0,-0.024 -0.01,-0.047 -0.01,-0.071 -0.1158,-0.9215 -0.3451,-1.8045 -0.6578,-2.6469 -0.02,-0.054 -0.038,-0.1087 -0.059,-0.1623 -8e-4,0 0,0 0,-0.01 -0.2372,-0.6103 -0.5238,-1.1936 -0.8537,-1.7497 L -0.0491,405.64286 c -0.9567,-1.9445 -2.4573,-3.647 -4.4343,-4.8669 -0.036,-0.022 -0.072,-0.044 -0.1085,-0.066 -0.066,-0.04 -0.1295,-0.082 -0.1964,-0.1204 -0.2253,-0.1301 -0.4539,-0.2489 -0.6837,-0.3628 -0.054,-0.027 -0.1077,-0.052 -0.1617,-0.078 -0.2981,-0.1422 -0.5989,-0.2725 -0.9028,-0.3881 -0.047,-0.018 -0.094,-0.034 -0.1411,-0.051 -0.3204,-0.1172 -0.6429,-0.2212 -0.9679,-0.3095 -0.03,-0.01 -0.06,-0.015 -0.09,-0.023 -0.2441,-0.064 -0.4896,-0.112 -0.7354,-0.1602 -0.185,-0.036 -0.3698,-0.07 -0.5565,-0.098 -0.194,-0.028 -0.3876,-0.05 -0.5819,-0.069 -0.1887,-0.018 -0.3771,-0.034 -0.5669,-0.043 -0.1922,-0.01 -0.3838,-0.013 -0.5756,-0.012 -0.1082,-10e-5 -0.2157,-0.01 -0.3241,-0.01 z"
         sodipodi:nodetypes="ssssssssssssscccscscsssscscscssssscscscscsssscsscccsssssssssssssss" />
      <path
         id="rect14439-6-0-0-9-4-1"
         style="fill:#d92124;fill-rule:evenodd;stroke-width:1.50297;stroke-linecap:round;stroke-linejoin:round;paint-order:markers fill stroke"
         d="m -10.9748,402.96166 c -0.057,0 -0.1144,0.01 -0.1716,0.013 -0.1235,0.01 -0.2462,0.017 -0.369,0.028 -0.1311,0.013 -0.2618,0.027 -0.3927,0.046 -0.1241,0.018 -0.247,0.041 -0.37,0.065 -0.1285,0.025 -0.2566,0.052 -0.3845,0.084 -0.1237,0.031 -0.2458,0.066 -0.3679,0.1029 -0.123,0.037 -0.2455,0.075 -0.3674,0.1178 -0.132,0.047 -0.2613,0.099 -0.3907,0.1529 -0.1072,0.044 -0.2144,0.088 -0.3204,0.1375 -0.135,0.063 -0.2663,0.1334 -0.3979,0.2041 -0.075,0.04 -0.1528,0.073 -0.2274,0.1163 -0.031,0.018 -0.058,0.039 -0.088,0.057 -0.1004,0.06 -0.1972,0.1261 -0.2951,0.1907 -0.1339,0.088 -0.2678,0.1749 -0.3948,0.2693 -0.038,0.029 -0.074,0.06 -0.1121,0.09 -0.9877,0.7623 -1.7613,1.7172 -2.2825,2.7858 l -98.1155,169.9411 c -0.3997,0.674 -0.7019,1.411 -0.8888,2.1957 -0.011,0.046 -0.025,0.092 -0.035,0.139 -0.035,0.1614 -0.061,0.326 -0.086,0.491 -0.017,0.1057 -0.036,0.2109 -0.048,0.3167 -0.014,0.1228 -0.02,0.2476 -0.028,0.3721 -0.01,0.1452 -0.02,0.2902 -0.022,0.4351 -4e-4,0.034 0,0.067 0,0.1013 0,0.086 0.01,0.1691 0.013,0.2543 0.01,0.1396 0.01,0.2791 0.021,0.418 0.012,0.1438 0.031,0.2849 0.051,0.4264 0.015,0.1048 0.029,0.2095 0.047,0.3136 0.032,0.1766 0.071,0.3497 0.1137,0.522 0.015,0.061 0.03,0.1222 0.046,0.1829 0.057,0.206 0.1219,0.4078 0.1943,0.6067 0.01,0.028 0.02,0.056 0.031,0.084 0.084,0.2239 0.1782,0.4422 0.2816,0.6558 0,0.01 0.01,0.012 0.01,0.018 1.1334,2.3258 3.3638,4.0037 6.0302,4.3713 0.057,0.01 0.1135,0.019 0.1705,0.026 0.1497,0.017 0.302,0.026 0.4542,0.035 0.1238,0.01 0.2474,0.017 0.3711,0.019 0.035,5e-4 0.069,0.01 0.1043,0.01 H 87.6883 c 0.035,0 0.069,0 0.1044,-0.01 0.1237,0 0.2472,-0.011 0.371,-0.019 0.1523,-0.01 0.3045,-0.017 0.4543,-0.035 0.057,-0.01 0.1136,-0.018 0.1705,-0.026 2.6664,-0.3676 4.8968,-2.0455 6.0301,-4.3713 0,-0.01 0.01,-0.012 0.01,-0.018 0.1039,-0.2146 0.1981,-0.434 0.2827,-0.6589 0.01,-0.026 0.018,-0.052 0.028,-0.077 0.073,-0.2002 0.1389,-0.4033 0.1959,-0.6108 0.017,-0.06 0.031,-0.1198 0.046,-0.1799 0.044,-0.1757 0.084,-0.3525 0.1157,-0.5327 0.018,-0.097 0.03,-0.1951 0.044,-0.293 0.02,-0.1459 0.04,-0.2915 0.052,-0.4398 0.012,-0.1386 0.016,-0.2777 0.021,-0.417 0,-0.085 0.013,-0.1684 0.013,-0.2543 0,-0.034 0,-0.067 0,-0.1013 0,-0.1449 -0.012,-0.2899 -0.022,-0.4351 -0.01,-0.1245 -0.014,-0.2493 -0.028,-0.3721 -0.012,-0.1061 -0.031,-0.2118 -0.048,-0.3178 -0.025,-0.1642 -0.051,-0.3281 -0.086,-0.4888 -0.011,-0.049 -0.025,-0.097 -0.037,-0.1452 -0.187,-0.7828 -0.4884,-1.5181 -0.8873,-2.1906 L -3.5968,407.42226 c -0.5213,-1.0689 -1.295,-2.0239 -2.283,-2.7863 -0.038,-0.03 -0.074,-0.061 -0.1127,-0.09 -0.1222,-0.091 -0.2511,-0.1747 -0.3798,-0.2594 -0.1044,-0.069 -0.2076,-0.1396 -0.3147,-0.2036 -0.028,-0.017 -0.054,-0.037 -0.082,-0.053 -0.073,-0.042 -0.1482,-0.074 -0.2217,-0.1137 -0.1337,-0.072 -0.2674,-0.1432 -0.4046,-0.2072 -0.1017,-0.047 -0.2043,-0.089 -0.307,-0.1318 -0.1372,-0.057 -0.2745,-0.113 -0.4145,-0.1623 -0.1147,-0.04 -0.23,-0.076 -0.3457,-0.1105 -0.1257,-0.038 -0.2514,-0.074 -0.3788,-0.106 -0.1278,-0.032 -0.2559,-0.059 -0.3844,-0.084 -0.1229,-0.024 -0.2456,-0.047 -0.3695,-0.065 -0.131,-0.019 -0.2616,-0.033 -0.3928,-0.046 -0.1228,-0.012 -0.2455,-0.022 -0.3689,-0.028 -0.1297,-0.01 -0.2587,-0.01 -0.3881,-0.01 -0.072,0 -0.1442,-0.01 -0.2165,0 z"
         sodipodi:nodetypes="ssssssssssssscscccscsssssssscscscscsccsssscscscscscscsssssscscccsccssssssssssssss" />
      <path
         sodipodi:type="star"
         style="fill:#ffffff;fill-opacity:0.975385;stroke-width:0.499999;paint-order:markers stroke fill"
         id="path2991"
         inkscape:flatsided="true"
         sodipodi:sides="3"
         sodipodi:cx="108.56278"
         sodipodi:cy="53.623089"
         sodipodi:r1="18.772087"
         sodipodi:r2="9.3860435"
         sodipodi:arg1="-1.5707963"
         sodipodi:arg2="-0.52359878"
         inkscape:rounded="0"
         inkscape:randomized="0"
         d="m 108.56278,34.851002 16.25711,28.158131 -32.514212,-10e-7 z"
         transform="matrix(4.6457535,0,0,4.6457535,-515.11443,275.46509)"
         inkscape:transform-center-x="2.8645368e-06"
         inkscape:transform-center-y="-21.802627" />
      <path
         style="fill:#000000;stroke-width:1.28643;paint-order:markers stroke fill"
         d="m -15.925625,500.98929 1.17166,5.74668 -19.19276,39.55721 c 0,0 -2.05014,4.21367 2.09518,6.58341 4.14532,2.36973 6.99904,-2.11997 6.99904,-2.11997 l 16.7936996,-34.42426 11.71651,33.19681 c 0,0 2.49503,5.86261 7.3367704,3.9613 4.84175,-1.90131 2.42701,-7.64364 2.42701,-7.64364 L -0.36049537,506.90335 v -2.17593 l 1.45165997,-6.3046 c 0.14743,-0.26748 0.58199,-0.38167 0.83688,-0.16739 l 3.96095,4.2715 v 7.59984 c 0,2.41053 2.06472,3.91205 4.1294404,3.93173 2.06473,0.0196 4.12945,-1.44247 4.12945,-3.93173 v -8.20704 c 0,-1.48719 -0.6098,-2.65494 -1.2844,-3.32954 L -3.2048954,481.29437 c -0.94782,-1.08011 -2.96098,-1.13402 -4.01709,-0.55793 l -4.9156896,2.31343 c -0.99521,0.44087 -1.5565,1.08124 -2.21639,1.87459 l -17.59262,22.3643 c -3.60898,3.96964 3.00935,8.9349 6.02168,5.46887 l 9.16241,-11.87993 c 0.27524,-0.35525 0.72621,-0.23547 0.83697,0.11159 z"
         id="path1683"
         sodipodi:nodetypes="ccczccczcccccccscccccccccccc" />
      <circle
         style="fill:#000000;stroke-width:1.38838;paint-order:markers stroke fill"
         id="path2679"
         cx="-12.592031"
         cy="473.46942"
         r="6.458035" />
      <path
         style="fill:#000000;stroke-width:1.28643;paint-order:markers stroke fill"
         d="m -76.349395,563.14359 17.12843,-28.73374 h 10.93544 l -12.88819,28.73374 z"
         id="path2735"
         sodipodi:nodetypes="ccccc" />
      <path
         style="fill:#000000;stroke-width:1.28643;paint-order:markers stroke fill"
         d="m -17.560085,563.14359 2.46223,-28.73374 h 11.1939096 l 1.26225,28.73374 z"
         id="path2735-2"
         sodipodi:nodetypes="ccccc" />
      <path
         id="path2735-3"
         style="fill:#000000;stroke-width:1.28643;paint-order:markers stroke fill"
         d="m -37.598265,534.40938 -9.92387,28.73454 h 15.17565 l 1.46651,-7.41631 c -1.19993,-0.18756 -3.42533,-1.1903 -4.7625,-2.88382 -1.32556,-1.67883 -1.66006,-4.10427 -0.92538,-6.11999 l 5.94846,-12.31442 z" />
      <path
         id="path2735-3-6"
         style="fill:#000000;stroke-width:1.28643;paint-order:markers stroke fill"
         d="m 11.482575,534.40938 4.55111,12.31442 c 0.73469,2.01572 0.40019,4.44116 -0.92538,6.11999 -1.11129,1.40746 -2.56218,2.40658 -3.95145,2.81867 l 1.47978,7.48146 h 15.17565 l -9.92387,-28.73454 z" />
      <path
         style="fill:#000000;stroke-width:1.28643;paint-order:markers stroke fill"
         d="m 56.856305,563.14359 -17.12842,-28.73374 h -10.93544 l 12.88819,28.73374 z"
         id="path2735-8"
         sodipodi:nodetypes="ccccc" />
    </g>
  </g>
</svg>
